<mxfile host="app.diagrams.net" modified="2024-03-04T11:45:43.921Z" agent="Mozilla/5.0 (Macintosh; Intel Mac OS X 10_15_7) AppleWebKit/537.36 (KHTML, like Gecko) Chrome/122.0.0.0 Safari/537.36" version="24.0.1" etag="UlzGPjobzPNf9Jcy1KKI" type="github">
  <diagram name="第 1 页" id="ZyKLw10RMALrzC7oANTD">
    <mxGraphModel>
      <root>
        <mxCell id="0" />
        <mxCell id="1" parent="0" />
      </root>
    </mxGraphModel>
  </diagram>
</mxfile>
